<svg
xmlns="http://www.w3.org/2000/svg"
width="36"
height="36"
viewBox="0 0 36 36"
>
<g
id="Group_122928"
data-name="Group 122928"
transform="translate(-647.292 -717)"
>
<g
id="Group_122924"
data-name="Group 122924"
transform="translate(658.828 728.438)"
>
<g
id="Icon_feather-copy"
data-name="Icon feather-copy"
>
<path
id="Path_20160"
data-name="Path 20160"
d="M14.771,13.5h5.721a1.271,1.271,0,0,1,1.271,1.271v5.721a1.271,1.271,0,0,1-1.271,1.271H14.771A1.271,1.271,0,0,1,13.5,20.492V14.771A1.271,1.271,0,0,1,14.771,13.5Z"
transform="translate(-9.05 -9.05)"
fill="none"
stroke="#164f73"
stroke-linecap="round"
stroke-linejoin="round"
stroke-width="1"
/>
<path
id="Path_20161"
data-name="Path 20161"
d="M4.907,11.263H4.271A1.271,1.271,0,0,1,3,9.992V4.271A1.271,1.271,0,0,1,4.271,3H9.992a1.271,1.271,0,0,1,1.271,1.271v.636"
transform="translate(-3 -3)"
fill="none"
stroke="#164f73"
stroke-linecap="round"
stroke-linejoin="round"
stroke-width="1"
/>
</g>
</g>
</g>
</svg>