<svg
                      xmlns="http://www.w3.org/2000/svg"
                      width="20"
                      height="20"
                      viewBox="0 0 20.019 20.025"
                    >
                      <path
                        id="Icon_ionic-ios-settings"
                        data-name="Icon ionic-ios-settings"
                        d="M21.248,13.627a2.349,2.349,0,0,1,1.507-2.192,9.311,9.311,0,0,0-1.127-2.714,2.381,2.381,0,0,1-.956.2,2.344,2.344,0,0,1-2.144-3.3A9.283,9.283,0,0,0,15.819,4.5a2.347,2.347,0,0,1-4.383,0A9.311,9.311,0,0,0,8.721,5.627a2.344,2.344,0,0,1-2.144,3.3,2.3,2.3,0,0,1-.956-.2A9.517,9.517,0,0,0,4.5,11.441a2.348,2.348,0,0,1,0,4.383,9.311,9.311,0,0,0,1.127,2.714,2.345,2.345,0,0,1,3.095,3.095,9.365,9.365,0,0,0,2.714,1.127,2.343,2.343,0,0,1,4.374,0,9.311,9.311,0,0,0,2.714-1.127,2.347,2.347,0,0,1,3.095-3.095,9.366,9.366,0,0,0,1.127-2.714A2.36,2.36,0,0,1,21.248,13.627Zm-7.578,3.8a3.8,3.8,0,1,1,3.8-3.8A3.8,3.8,0,0,1,13.67,17.426Z"
                        transform="translate(-3.618 -3.617)"
                        fill="none"
                        stroke="#14b3a7"
                        stroke-width="1.5"
                      />
                    </svg>